name rise49.25peak52.1432fall72.8391.mot
datacolumns 19
datarows 29
range 17.32492900000000 17.37160300000000
endheader
time	ground_force1_vx	ground_force1_vy	ground_force1_vz	ground_force1_px	ground_force1_py	ground_force1_pz	ground_force2_vx	ground_force2_vy	ground_force2_vz	ground_force2_px	ground_force2_py	ground_force2_pz	ground_torque1_x	ground_torque1_y	ground_torque1_z	ground_torque2_x	ground_torque2_y	ground_torque2_z	
17.32492900000000	-39.60079400000000	806.35799599999996	51.68114900000000	0.13748900000000	0.00000000000000	0.09055900000000	0.00000000000000	0.00000000000000	0.00000000000000	0.00000000000000	0.00000000000000	0.00000000000000	0.00000000000000	21.97778300000000	0.00000000000000	0.00000000000000	0.00000000000000	0.00000000000000	
17.32660000000000	-40.07298600000000	805.62427700000001	51.64442400000000	0.13657200000000	0.00000000000000	0.09048100000000	-1.08115000000000	3.71287200000000	0.18816900000000	0.00000000000000	0.00000000000000	0.00000000000000	0.00000000000000	21.88359500000000	0.00000000000000	0.00000000000000	-0.03201400000000	0.00000000000000	
17.32826500000000	-40.55899400000000	804.78831700000001	51.59445600000000	0.13566500000000	0.00000000000000	0.09040000000000	-1.75041600000000	7.09728100000000	0.32714300000000	0.00000000000000	0.00000000000000	0.00000000000000	0.00000000000000	21.78962500000000	0.00000000000000	0.00000000000000	-0.04430600000000	0.00000000000000	
17.32993500000000	-41.05919600000000	803.84765100000004	51.53078100000000	0.13476800000000	0.00000000000000	0.09031500000000	-2.51097400000000	11.17811900000000	0.48937800000000	0.00000000000000	0.00000000000000	0.00000000000000	0.00000000000000	21.69598700000000	0.00000000000000	0.00000000000000	-0.05677200000000	0.00000000000000	
17.33160300000000	-41.57391300000000	802.79978600000004	51.45294300000000	0.13388000000000	0.00000000000000	0.09022700000000	-3.34059500000000	15.90957900000000	0.67131500000000	0.00000000000000	0.00000000000000	0.00000000000000	0.00000000000000	21.60278300000000	0.00000000000000	0.00000000000000	-0.06861700000000	0.00000000000000	
17.33326700000000	-42.10341300000000	801.64220699999998	51.36050100000000	0.13300300000000	0.00000000000000	0.09013600000000	-4.21115600000000	21.21480000000000	0.86806600000000	0.00000000000000	0.00000000000000	0.00000000000000	0.00000000000000	21.51010400000000	0.00000000000000	0.00000000000000	-0.07896600000000	0.00000000000000	
17.33492900000000	-42.64790100000000	800.37237000000005	51.25302300000000	0.13213700000000	0.00000000000000	0.09004200000000	-5.09045100000000	26.99160300000000	1.07372000000000	0.34088200000000	0.00000000000000	-0.08771400000000	0.00000000000000	21.41802900000000	0.00000000000000	0.00000000000000	-0.16741100000000	0.00000000000000	
17.33659800000000	-43.20752000000000	798.98770400000001	51.13009600000000	0.13127900000000	0.00000000000000	0.08994500000000	-5.94449000000000	33.12099000000000	1.28175200000000	0.34728100000000	0.00000000000000	-0.08767000000000	0.00000000000000	21.32662600000000	0.00000000000000	0.00000000000000	-0.16765400000000	0.00000000000000	
17.33826700000000	-43.78234900000000	797.48560899999995	50.99132000000000	0.13043200000000	0.00000000000000	0.08984400000000	-6.74002300000000	39.47727900000000	1.48550200000000	0.35309100000000	0.00000000000000	-0.08762400000000	0.00000000000000	21.23595000000000	0.00000000000000	0.00000000000000	-0.15840500000000	0.00000000000000	
17.33993300000000	-44.37239300000000	795.86345500000004	50.83631400000000	0.12959500000000	0.00000000000000	0.08974000000000	-7.44691100000000	45.93844500000000	1.67863400000000	0.35838400000000	0.00000000000000	-0.08757600000000	0.00000000000000	21.14604100000000	0.00000000000000	0.00000000000000	-0.13904100000000	0.00000000000000	
17.34160100000000	-44.97758800000000	794.11858500000005	50.66471400000000	0.12876600000000	0.00000000000000	0.08963300000000	-8.04007400000000	52.39528000000000	1.85554000000000	0.36322000000000	0.00000000000000	-0.08752900000000	0.00000000000000	21.05692700000000	0.00000000000000	0.00000000000000	-0.10940100000000	0.00000000000000	
17.34326200000000	-45.59779300000000	792.24831600000005	50.47617900000000	0.12794700000000	0.00000000000000	0.08952300000000	-8.50079900000000	58.75842000000000	2.01163200000000	0.36764800000000	0.00000000000000	-0.08748400000000	0.00000000000000	20.96862300000000	0.00000000000000	0.00000000000000	-0.06978000000000	0.00000000000000	
17.34493200000000	-46.23278900000000	790.24993500000005	50.27038800000000	0.12713600000000	0.00000000000000	0.08941000000000	-8.81736400000000	64.96274699999999	2.14351600000000	0.37171100000000	0.00000000000000	-0.08744200000000	0.00000000000000	20.88113000000000	0.00000000000000	0.00000000000000	-0.02088100000000	0.00000000000000	
17.34659900000000	-46.88227600000000	788.12070800000004	50.04704200000000	0.12633400000000	0.00000000000000	0.08929400000000	-8.98499400000000	70.96912200000000	2.24903300000000	0.37544200000000	0.00000000000000	-0.08740400000000	0.00000000000000	20.79443300000000	0.00000000000000	0.00000000000000	0.03624900000000	0.00000000000000	
17.34826700000000	-47.54587400000000	785.85788000000002	49.80586700000000	0.12553900000000	0.00000000000000	0.08917600000000	-9.00525800000000	76.76369099999999	2.32720300000000	0.37887300000000	0.00000000000000	-0.08737000000000	0.00000000000000	20.70850600000000	0.00000000000000	0.00000000000000	0.10031100000000	0.00000000000000	
17.34993400000000	-48.22311700000000	783.45867499999997	49.54661600000000	0.12475200000000	0.00000000000000	0.08905400000000	-8.88505700000000	82.35523700000000	2.37807300000000	0.38202800000000	0.00000000000000	-0.08734200000000	0.00000000000000	20.62330700000000	0.00000000000000	0.00000000000000	0.16983600000000	0.00000000000000	
17.35160100000000	-48.91345200000000	780.92030399999999	49.26906700000000	0.12397200000000	0.00000000000000	0.08893000000000	-8.63534300000000	87.77112600000000	2.40251600000000	0.38493000000000	0.00000000000000	-0.08731900000000	0.00000000000000	20.53878200000000	0.00000000000000	0.00000000000000	0.24328000000000	0.00000000000000	
17.35326600000000	-49.61623900000000	778.23996899999997	48.97302700000000	0.12319800000000	0.00000000000000	0.08880300000000	-8.26972900000000	93.05243500000000	2.40199500000000	0.38759900000000	0.00000000000000	-0.08730200000000	0.00000000000000	20.45486000000000	0.00000000000000	0.00000000000000	0.31909800000000	0.00000000000000	
17.35492800000000	-50.33075000000000	775.41486199999997	48.65833200000000	0.12243100000000	0.00000000000000	0.08867300000000	-7.80313000000000	98.24879300000001	2.37831900000000	0.39005200000000	0.00000000000000	-0.08729000000000	0.00000000000000	20.37146000000000	0.00000000000000	0.00000000000000	0.39580900000000	0.00000000000000	
17.35660000000000	-51.05616700000000	772.44218000000001	48.32485000000000	0.12166800000000	0.00000000000000	0.08854100000000	-7.25052800000000	103.41342800000000	2.33341500000000	0.39230300000000	0.00000000000000	-0.08728400000000	0.00000000000000	20.28848500000000	0.00000000000000	0.00000000000000	0.47204500000000	0.00000000000000	
17.35828500000000	-51.79158100000000	769.31912100000000	47.97247800000000	0.12091000000000	0.00000000000000	0.08840700000000	-6.62594500000000	108.59875599999999	2.26913900000000	0.39436700000000	0.00000000000000	-0.08728500000000	0.00000000000000	20.20582600000000	0.00000000000000	0.00000000000000	0.54658200000000	0.00000000000000	
17.35993300000000	-52.53599200000000	766.04289900000003	47.60114800000000	0.12015700000000	0.00000000000000	0.08827100000000	-5.94166700000000	113.85277900000000	2.18710900000000	0.39625600000000	0.00000000000000	-0.08729100000000	0.00000000000000	20.12336100000000	0.00000000000000	0.00000000000000	0.61836000000000	0.00000000000000	
17.36159800000000	-53.28831300000000	762.61074699999995	47.21082500000000	0.11940700000000	0.00000000000000	0.08813200000000	-5.20774200000000	119.21642199999999	2.08860600000000	0.39798100000000	0.00000000000000	-0.08730300000000	0.00000000000000	20.04095600000000	0.00000000000000	0.00000000000000	0.68648000000000	0.00000000000000	
17.36326400000000	-54.04736300000000	759.01992299999995	46.80150800000000	0.11866000000000	0.00000000000000	0.08799200000000	-4.43172900000000	124.72185600000000	1.97450500000000	0.39955100000000	0.00000000000000	-0.08732000000000	0.00000000000000	19.95846400000000	0.00000000000000	0.00000000000000	0.75020100000000	0.00000000000000	
17.36493000000000	-54.81187500000000	755.26772600000004	46.37323400000000	0.11791500000000	0.00000000000000	0.08785000000000	-3.61868400000000	130.39174000000000	1.84525700000000	0.40097500000000	0.00000000000000	-0.08734400000000	0.00000000000000	19.87572700000000	0.00000000000000	0.00000000000000	0.80892100000000	0.00000000000000	
17.36661700000000	-55.58049300000000	751.35149899999999	45.92607300000000	0.11717100000000	0.00000000000000	0.08770600000000	-2.77133600000000	136.23929000000001	1.70090200000000	0.40226200000000	0.00000000000000	-0.08737300000000	0.00000000000000	19.79257800000000	0.00000000000000	0.00000000000000	0.86215300000000	0.00000000000000	
17.36826800000000	-56.35177500000000	747.26864399999999	45.46013500000000	0.11642900000000	0.00000000000000	0.08756000000000	-1.89041000000000	142.26901100000001	1.54112200000000	0.40342000000000	0.00000000000000	-0.08740700000000	0.00000000000000	19.70883600000000	0.00000000000000	0.00000000000000	0.90950800000000	0.00000000000000	
17.36993700000000	-57.12419600000000	743.01662999999996	44.97556400000000	0.11568700000000	0.00000000000000	0.08741300000000	-0.97503400000000	148.47791000000001	1.36530200000000	0.40445400000000	0.00000000000000	-0.08744700000000	0.00000000000000	19.62431400000000	0.00000000000000	0.00000000000000	0.95066100000000	0.00000000000000	
17.37160300000000	-57.89614900000000	738.59301000000005	44.47254500000000	0.11494500000000	0.00000000000000	0.08726400000000	-0.02320700000000	154.85702000000001	1.17260700000000	0.40537200000000	0.00000000000000	-0.08749100000000	0.00000000000000	19.53881300000000	0.00000000000000	0.00000000000000	0.98533700000000	0.00000000000000	
